<mxfile agent="5.0 (Windows NT 10.0; Win64; x64) AppleWebKit/537.36 (KHTML, like Gecko) draw.io/13.2.2 Chrome/83.0.4103.100 Electron/9.0.3 Safari/537.36" compressed="false" etag="bYsXQEBpe86CtkmkOr99" host="Electron" modified="2020-06-22T08:29:28.763Z" type="device" version="13.2.2">
  <diagram id="Page-1" name="Page-1">
    <mxGraphModel arrows="1" connect="1" dx="852" dy="494" fold="1" grid="1" gridSize="10" guides="1" math="0" page="0" pageHeight="1169" pageScale="1" pageWidth="827" shadow="1" tooltips="1">
      <root>
        <mxCell id="0" />
        <mxCell id="1" parent="0" />
        <object id="node-1" label="node-1">
          <mxCell parent="1" style="rounded=1;whiteSpace=wrap;html=1;" vertex="1">
            <mxGeometry as="geometry" height="60" width="120" x="536" />
          </mxCell>
        </object>
        <object id="node-3" label="node-3">
          <mxCell parent="1" style="rounded=1;whiteSpace=wrap;html=1;" vertex="1">
            <mxGeometry as="geometry" height="60" width="120" x="1042" y="120" />
          </mxCell>
        </object>
        <object a="b" c="d" id="node-4" label="node-4" link="http://google.com">
          <mxCell parent="1" style="rounded=1;whiteSpace=wrap;html=1;" vertex="1">
            <mxGeometry as="geometry" height="60" width="120" x="802" />
          </mxCell>
        </object>
        <object id="c8fe43e5ad1ce2c05bfc0b371d1fb987" label="bla3">
          <mxCell edge="1" parent="1" source="node-3" style="endArrow=none;" target="node-1">
            <mxGeometry as="geometry" relative="1" />
          </mxCell>
        </object>
        <object id="3972a5fc4a57b84e0376216959d97b1c" label="bla4">
          <mxCell edge="1" parent="1" source="node-4" style="endArrow=none;" target="node-3">
            <mxGeometry as="geometry" relative="1" />
          </mxCell>
        </object>
        </root>
    </mxGraphModel>
  </diagram>
</mxfile>